<svg width="72" height="73" viewBox="0 0 72 73" fill="none" xmlns="http://www.w3.org/2000/svg">
<g filter="url(#filter0_d_873_462)">
<rect x="12" y="8.7395" width="48" height="48" rx="24" fill="white"/>
<path d="M33.6665 28.58V36.42L39.8148 32.5L33.6665 28.58Z" fill="#066BFB"/>
<path d="M31.3335 38.845C31.3335 39.6341 32.2046 40.1123 32.8704 39.6887L42.8411 33.3437C43.4586 32.9507 43.4586 32.0493 42.8411 31.6564L32.8704 25.3114C32.2046 24.8877 31.3335 25.366 31.3335 26.155V38.845ZM33.6668 30.4036C33.6668 29.6141 34.5387 29.1359 35.2044 29.5604L38.4926 31.6568C39.1092 32.0499 39.1092 32.9502 38.4926 33.3432L35.2044 35.4397C34.5387 35.8641 33.6668 35.386 33.6668 34.5965V30.4036Z" fill="#066BFB"/>
</g>
<defs>
<filter id="filter0_d_873_462" x="0" y="0.739502" width="72" height="72" filterUnits="userSpaceOnUse" color-interpolation-filters="sRGB">
<feFlood flood-opacity="0" result="BackgroundImageFix"/>
<feColorMatrix in="SourceAlpha" type="matrix" values="0 0 0 0 0 0 0 0 0 0 0 0 0 0 0 0 0 0 127 0" result="hardAlpha"/>
<feOffset dy="4"/>
<feGaussianBlur stdDeviation="6"/>
<feComposite in2="hardAlpha" operator="out"/>
<feColorMatrix type="matrix" values="0 0 0 0 0.595732 0 0 0 0 0.595732 0 0 0 0 0.595732 0 0 0 0.15 0"/>
<feBlend mode="normal" in2="BackgroundImageFix" result="effect1_dropShadow_873_462"/>
<feBlend mode="normal" in="SourceGraphic" in2="effect1_dropShadow_873_462" result="shape"/>
</filter>
</defs>
</svg>
