<svg width="60" height="60" viewBox="0 0 60 60" fill="none" xmlns="http://www.w3.org/2000/svg">
<rect width="60" height="60" rx="30" fill="#FF579C"/>
<path d="M42.0002 20.6667C40.5202 20.2 38.8935 20 37.3335 20C34.7335 20 31.9335 20.5333 30.0002 22C28.0668 20.5333 25.2668 20 22.6668 20C20.0668 20 17.2668 20.5333 15.3335 22V41.5333C15.3335 41.8667 15.6668 42.2 16.0002 42.2C16.1335 42.2 16.2002 42.1333 16.3335 42.1333C18.1335 41.2667 20.7335 40.6667 22.6668 40.6667C25.2668 40.6667 28.0668 41.2 30.0002 42.6667C31.8002 41.5333 35.0668 40.6667 37.3335 40.6667C39.5335 40.6667 41.8002 41.0667 43.6668 42.0667C43.8002 42.1333 43.8668 42.1333 44.0002 42.1333C44.3335 42.1333 44.6668 41.8 44.6668 41.4667V22C43.8668 21.4 43.0002 21 42.0002 20.6667ZM18.0002 38.6667V23.3333C19.4668 22.8667 21.0668 22.6667 22.6668 22.6667C24.4535 22.6667 26.8402 23.2133 28.6668 23.9867V39.32C26.8402 38.5467 24.4535 38 22.6668 38C21.0668 38 19.4668 38.2 18.0002 38.6667ZM42.0002 38.6667C40.5335 38.2 38.9335 38 37.3335 38C35.5468 38 33.1602 38.5467 31.3335 39.32V23.9867C33.1602 23.2 35.5468 22.6667 37.3335 22.6667C38.9335 22.6667 40.5335 22.8667 42.0002 23.3333V38.6667Z" fill="white"/>
<path opacity="0.3" d="M28.6667 23.9866C26.84 23.2133 24.4533 22.6666 22.6667 22.6666C21.0667 22.6666 19.4667 22.8666 18 23.3333V38.6666C19.4667 38.2 21.0667 38 22.6667 38C24.4533 38 26.84 38.5466 28.6667 39.32V23.9866Z" fill="white"/>
<path d="M37.3337 28C38.507 28 39.6403 28.12 40.667 28.3467V26.32C39.6137 26.12 38.4803 26 37.3337 26C35.627 26 34.0537 26.2133 32.667 26.6267V28.72C33.987 28.2533 35.5737 28 37.3337 28Z" fill="white"/>
<path d="M37.3337 31.5466C38.507 31.5466 39.6403 31.6666 40.667 31.8933V29.8666C39.6137 29.6666 38.4803 29.5466 37.3337 29.5466C35.627 29.5466 34.0537 29.76 32.667 30.1733V32.2666C33.987 31.8133 35.5737 31.5466 37.3337 31.5466Z" fill="white"/>
<path d="M37.3337 35.1067C38.507 35.1067 39.6403 35.2267 40.667 35.4534V33.4267C39.6137 33.2267 38.4803 33.1067 37.3337 33.1067C35.627 33.1067 34.0537 33.32 32.667 33.7334V35.8267C33.987 35.36 35.5737 35.1067 37.3337 35.1067Z" fill="white"/>
</svg>
