<svg width="103" height="84" viewBox="0 0 103 84" fill="none" xmlns="http://www.w3.org/2000/svg">
<rect width="103" height="84" fill="white"/>
<g clip-path="url(#clip0_500_25901)">
<path d="M30.1017 24.4642C31.9489 28.976 35.096 31.5054 39.2237 33.8296C40.6148 34.5816 41.9603 35.1513 43.283 35.5615C43.4654 35.607 43.6478 35.6754 43.8303 35.721C43.8987 35.7438 43.9671 35.7665 44.0355 35.7893C44.3092 35.8805 44.6056 35.9488 44.9021 36.0172C45.1074 36.0628 45.2898 36.1083 45.4722 36.1539C45.4722 36.1311 45.4722 36.1083 45.4722 36.0856C45.5407 35.5387 45.5863 34.9918 45.6319 34.4449C45.6319 34.4221 45.6319 34.3765 45.6319 34.3537C45.6775 33.8296 45.7231 33.3055 45.7459 32.7587C45.7459 32.6903 45.7459 32.6219 45.7687 32.5536C45.7915 32.0067 45.8143 31.4598 45.8371 30.9129C45.8371 30.8218 45.8371 30.7306 45.8371 30.6167C45.8599 30.047 45.8599 29.4773 45.8599 28.8849C45.8599 24.3958 45.4038 20.2258 44.6285 16.6938C43.2145 10.3362 40.7288 6.12061 37.901 6.12061C37.7642 6.12061 37.6501 6.1206 37.5133 6.14339C37.4677 6.14339 37.4221 6.16618 37.3993 6.16618C37.3081 6.18896 37.2168 6.18897 37.1484 6.21175C37.1028 6.23454 37.0572 6.23454 36.9888 6.25732C36.9204 6.28011 36.8291 6.3029 36.7607 6.34848C36.7151 6.37126 36.6467 6.39405 36.6011 6.41683C36.5327 6.43962 36.4643 6.4852 36.3959 6.53077C36.3502 6.55356 36.2818 6.59913 36.2362 6.62192C36.1678 6.66749 36.0994 6.71307 36.031 6.75864C35.9854 6.80421 35.917 6.827 35.8713 6.87257C35.8029 6.91815 35.7345 6.98651 35.6661 7.03209C35.6205 7.07766 35.5521 7.12323 35.5065 7.1688C35.438 7.23716 35.3696 7.30553 35.3012 7.37389C35.21 7.46504 35.1416 7.5334 35.0504 7.62454C34.9819 7.71569 34.9135 7.78406 34.8223 7.8752C34.7539 7.94356 34.7083 8.01193 34.6399 8.10307C34.5943 8.17143 34.5258 8.23979 34.4802 8.30816C34.4118 8.3993 34.3662 8.46767 34.2978 8.55881C34.2522 8.62718 34.2066 8.69554 34.161 8.7639C34.0926 8.85504 34.0469 8.9462 33.9785 9.03734C33.9329 9.1057 33.8873 9.19685 33.8417 9.26521C33.7733 9.35636 33.7277 9.47029 33.6593 9.56144C33.6136 9.6298 33.568 9.72095 33.5224 9.78931C33.454 9.90325 33.4084 10.0172 33.34 10.1311C33.2944 10.1995 33.2716 10.2906 33.226 10.359C33.1575 10.4729 33.1119 10.6096 33.0435 10.7236C33.0207 10.7919 32.9979 10.8603 32.9523 10.9059C32.7242 11.3844 32.519 11.9085 32.3138 12.4554C32.291 12.5238 32.2681 12.5921 32.2453 12.6605C32.1997 12.82 32.1313 12.9795 32.0857 13.139C32.0629 13.2302 32.0173 13.3213 31.9945 13.3897C31.9489 13.5492 31.9033 13.7087 31.8349 13.8682C31.8121 13.9593 31.7664 14.0505 31.7436 14.1644C31.698 14.3239 31.6524 14.4834 31.6068 14.643C31.584 14.7341 31.5612 14.848 31.5156 14.9392C31.47 15.0987 31.4244 15.281 31.3788 15.4405C31.356 15.5544 31.3331 15.6456 31.3103 15.7595C31.2647 15.9418 31.2191 16.1013 31.1735 16.2836C31.1507 16.3748 31.1279 16.4887 31.1051 16.5799C30.9683 17.2179 30.8314 17.8559 30.7174 18.5168C30.6946 18.6307 30.6718 18.7674 30.649 18.8813C30.6262 19.0409 30.6034 19.2231 30.5578 19.3827C30.535 19.5194 30.5122 19.6789 30.4894 19.8384C30.4666 19.9979 30.4437 20.1574 30.4209 20.3169C30.3981 20.4764 30.3753 20.6359 30.3525 20.8182C30.3297 20.9778 30.3069 21.1373 30.2841 21.2968C30.2613 21.4791 30.2385 21.6614 30.2157 21.8437C30.1929 22.0032 30.1929 22.1399 30.1701 22.2994C30.1473 22.5045 30.1245 22.7096 30.1017 22.9146C30.0789 23.0514 30.0789 23.1881 30.0561 23.3248C30.0333 23.5755 30.0105 23.8261 29.9877 24.0996C29.9877 24.1907 29.9648 24.2819 29.9648 24.3502C30.1017 24.373 30.1017 24.4186 30.1017 24.4642C30.1017 24.4414 30.1017 24.4414 30.1017 24.4642Z" fill="url(#paint0_linear_500_25901)"/>
<path d="M35.3242 50.3956C36.6925 51.8768 39.2239 52.9933 41.4132 53.5858C44.9707 54.5201 47.8442 54.6568 51.0825 54.5656C60.2273 54.2466 67.2512 50.6463 67.388 46.5218C67.5705 40.6428 61.0254 38.7059 57.1714 37.8628C53.2033 36.9741 49.4633 37.0652 45.4953 36.1765C45.4953 36.1993 45.4953 36.2221 45.4953 36.2449C44.0813 45.7471 41.8236 51.1476 37.9924 51.6489" fill="url(#paint1_linear_500_25901)"/>
<path d="M37.9238 51.6257C41.5954 51.489 44.4004 45.177 45.4722 36.1989C45.4038 36.1761 45.3582 36.1761 45.2898 36.1533C45.3582 36.1761 45.4038 36.1761 45.4722 36.1989C45.4722 36.1761 45.4722 36.1533 45.4722 36.1305C45.267 36.0849 45.0846 36.0394 44.9021 35.9938C44.6285 35.9254 44.332 35.8343 44.0355 35.7659C43.9671 35.7431 43.8987 35.7203 43.8303 35.6976C43.6478 35.652 43.4654 35.5836 43.283 35.538C42.0059 35.1507 40.7972 34.6721 39.6342 34.0341C39.4973 33.9657 39.3605 33.8746 39.2237 33.8062C38.95 33.6467 38.6763 33.51 38.4027 33.3505C33.8645 30.6616 31.7436 28.155 30.1017 24.4408V24.418C30.1017 24.4635 30.1017 24.5091 30.1017 24.5547C30.0561 25.2839 30.0105 25.9675 29.9877 26.6283C29.9877 26.9018 29.9648 27.1752 29.9648 27.4714C29.9648 27.5626 29.9648 27.6309 29.9648 27.7221C29.9648 28.1095 29.9648 28.4969 29.9648 28.8842C29.9648 29.3855 29.9648 29.8641 29.9877 30.3426C29.9877 30.5705 29.9877 30.7755 30.0105 30.9806C30.0105 31.1857 30.0333 31.3908 30.0333 31.5959C30.2385 36.3128 30.9227 40.5968 31.9945 43.9692C32.0629 44.1743 32.1085 44.3566 32.1769 44.5617C32.1997 44.6529 32.2225 44.744 32.2681 44.8124C32.8611 46.5214 33.5452 47.957 34.275 49.0735C34.3206 49.1419 34.3662 49.1875 34.389 49.2558C34.4802 49.3926 34.5715 49.5065 34.6855 49.6432C34.7311 49.7116 34.7995 49.7799 34.8451 49.8483C35.7801 50.9876 36.8292 51.6713 37.9238 51.6257Z" fill="url(#paint2_linear_500_25901)"/>
<path d="M70.512 54.5889C72.2375 54.5889 73.6363 53.1912 73.6363 51.467C73.6363 49.7429 72.2375 48.3452 70.512 48.3452C68.7865 48.3452 67.3877 49.7429 67.3877 51.467C67.3877 53.1912 68.7865 54.5889 70.512 54.5889Z" fill="url(#paint3_linear_500_25901)"/>
<path d="M6.1792 67.6448H7.77555V76.2127H13.8873V77.7166H6.1792V67.6448Z" fill="black"/>
<path d="M29.9416 76.2127V77.7166H22.4844V67.6448H29.9416V69.1487H24.1035V71.5869H29.9416V73.0909H24.1035V76.1899H29.9416V76.2127Z" fill="black"/>
<path d="M62.9177 76.2127V77.7166H55.4604V67.6448H62.9177V69.1487H57.0796V71.5869H62.9177V73.0909H57.0796V76.1899H62.9177V76.2127Z" fill="black"/>
<path d="M47.2967 77.7166H45.2671L42.3936 73.8201H40.3184V77.7166H38.6992V67.6448H43.1462C45.1758 67.6448 46.7038 68.7386 46.7038 70.721C46.7038 72.2933 45.7232 73.3187 44.2864 73.6833L47.2967 77.7166ZM43.0322 72.3389C44.1268 72.3389 45.0618 71.8376 45.0618 70.7666C45.0618 69.6728 44.1496 69.1715 43.0322 69.1715H40.3184V72.3389H43.0322Z" fill="black"/>
<path d="M80.2728 77.7166H78.2431L75.3697 73.8201H73.2944V77.7166H71.6753V67.6448H76.1223C78.1519 67.6448 79.6798 68.7386 79.6798 70.721C79.6798 72.2933 78.6992 73.3187 77.2625 73.6833L80.2728 77.7166ZM76.031 72.3389C77.1257 72.3389 78.0607 71.8376 78.0607 70.7666C78.0607 69.6728 77.1485 69.1715 76.031 69.1715H73.3173V72.3389H76.031Z" fill="black"/>
<path d="M86.7946 72.6808C86.749 69.8096 89.0067 67.3714 92.0854 67.417C95.1641 67.3714 97.4217 69.8096 97.3989 72.6808C97.4446 75.552 95.1641 77.9902 92.0854 77.9446C89.0295 77.9902 86.7718 75.552 86.7946 72.6808ZM95.7114 72.6808C95.7114 70.5844 94.3203 68.9209 92.0854 68.9209C89.8961 68.9209 88.4594 70.5616 88.4594 72.6808C88.4594 74.8 89.8961 76.4179 92.0854 76.4179C94.3203 76.4179 95.7114 74.8 95.7114 72.6808Z" fill="black"/>
</g>
<defs>
<linearGradient id="paint0_linear_500_25901" x1="38.1969" y1="7.76202" x2="37.7307" y2="50.6876" gradientUnits="userSpaceOnUse">
<stop stop-color="#2AE2E3"/>
<stop offset="0.4116" stop-color="#0088D8"/>
<stop offset="0.5239" stop-color="#0F76DE"/>
<stop offset="0.7504" stop-color="#3546ED"/>
<stop offset="1" stop-color="#650AFF"/>
</linearGradient>
<linearGradient id="paint1_linear_500_25901" x1="24.9213" y1="31.4859" x2="61.1924" y2="52.2081" gradientUnits="userSpaceOnUse">
<stop offset="0.1182" stop-color="#2AE2E3"/>
<stop offset="0.5156" stop-color="#0088D8"/>
<stop offset="1" stop-color="#650AFF"/>
</linearGradient>
<linearGradient id="paint2_linear_500_25901" x1="25.2679" y1="26.0897" x2="45.6483" y2="49.2865" gradientUnits="userSpaceOnUse">
<stop stop-color="#2AE2E3"/>
<stop offset="0.3393" stop-color="#0088D8"/>
<stop offset="0.4393" stop-color="#097CDC"/>
<stop offset="0.6179" stop-color="#225EE5"/>
<stop offset="0.8525" stop-color="#492DF4"/>
<stop offset="1" stop-color="#650AFF"/>
</linearGradient>
<linearGradient id="paint3_linear_500_25901" x1="72.368" y1="48.9866" x2="68.5794" y2="54.08" gradientUnits="userSpaceOnUse">
<stop stop-color="#2AE2E3"/>
<stop offset="0.0378291" stop-color="#26D9E2"/>
<stop offset="0.2923" stop-color="#0B9FDB"/>
<stop offset="0.4144" stop-color="#0088D8"/>
<stop offset="0.5095" stop-color="#0B7ADC"/>
<stop offset="0.6885" stop-color="#2856E7"/>
<stop offset="0.9304" stop-color="#571CF9"/>
<stop offset="1" stop-color="#650AFF"/>
</linearGradient>
<clipPath id="clip0_500_25901">
<rect width="90.8823" height="71.8919" fill="white" transform="translate(6.05859 6.05408)"/>
</clipPath>
</defs>
</svg>
